<svg width="16" height="16" viewBox="0 0 16 16" fill="none" xmlns="http://www.w3.org/2000/svg">
<g clip-path="url(#clip0_599_50)">
<path fill-rule="evenodd" clip-rule="evenodd" d="M15.712 6.33691L15.734 6.39491C16.0468 7.21383 16.085 8.11224 15.8428 8.95474C15.6005 9.79724 15.091 10.5382 14.391 11.0659L14.381 11.0739L11.045 13.5709L9.40204 14.8129L8.40304 15.5679C8.28593 15.6563 8.14323 15.704 7.99654 15.704C7.84984 15.704 7.70715 15.6563 7.59004 15.5679L6.59104 14.8129L4.94804 13.5709L1.63504 11.0879L1.61704 11.0739L1.60904 11.0669C0.909005 10.539 0.399559 9.79782 0.157499 8.95511C-0.0845619 8.11241 -0.0461174 7.21386 0.267037 6.39491L0.290037 6.33791L2.46604 0.656909C2.50409 0.558971 2.5687 0.473585 2.65261 0.410344C2.73652 0.347103 2.8364 0.308513 2.94104 0.298909C3.07582 0.285076 3.21117 0.319201 3.32329 0.395286C3.4354 0.471371 3.51711 0.584544 3.55404 0.714909L5.02404 5.21491H10.977L12.447 0.714909C12.4796 0.599392 12.5476 0.496974 12.6413 0.422013C12.7351 0.347053 12.8499 0.303308 12.9698 0.296913C13.0896 0.290517 13.2085 0.321791 13.3097 0.386351C13.4109 0.45091 13.4893 0.545517 13.534 0.656909L15.712 6.33691ZM11.28 8.52991C11.4125 8.38773 11.4846 8.19969 11.4812 8.00539C11.4778 7.81109 11.3991 7.6257 11.2617 7.48829C11.1242 7.35087 10.9389 7.27216 10.7446 7.26873C10.5503 7.26531 10.3622 7.33743 10.22 7.46991L7.50004 10.1899L6.28004 8.96991C6.21137 8.89622 6.12857 8.83712 6.03657 8.79613C5.94458 8.75514 5.84526 8.73309 5.74456 8.73132C5.64386 8.72954 5.54383 8.74807 5.45044 8.78579C5.35705 8.82351 5.27222 8.87965 5.201 8.95087C5.12978 9.02209 5.07363 9.10692 5.03591 9.20031C4.99819 9.2937 4.97967 9.39373 4.98145 9.49443C4.98322 9.59513 5.00526 9.69445 5.04626 9.78645C5.08725 9.87845 5.14635 9.96125 5.22004 10.0299L6.97004 11.7799C7.11066 11.9204 7.30129 11.9992 7.50004 11.9992C7.69879 11.9992 7.88941 11.9204 8.03004 11.7799L11.28 8.52991Z" fill="#4ECB71"/>
</g>
<defs>
<clipPath id="clip0_599_50">
<rect width="16" height="16" fill="white"/>
</clipPath>
</defs>
</svg>
